<svg width="332" height="119" viewBox="0 0 332 119" fill="none" xmlns="http://www.w3.org/2000/svg">
<path d="M184.837 6.57039L168.617 6.57016V72.0324H167.957V6.57039H151.352V0.811035L184.837 0.811265V6.57039Z" fill="white"/>
<mask id="path-2-inside-1_63_212" fill="white">
<path fill-rule="evenodd" clip-rule="evenodd" d="M195.322 117.21L168.574 87.9882C168.307 87.696 167.846 87.696 167.579 87.9882L140.831 117.21H131.687L162.603 83.4338C165.545 80.2205 170.608 80.2205 173.55 83.4338L204.466 117.21H195.322Z"/>
</mask>
<path fill-rule="evenodd" clip-rule="evenodd" d="M195.322 117.21L168.574 87.9882C168.307 87.696 167.846 87.696 167.579 87.9882L140.831 117.21H131.687L162.603 83.4338C165.545 80.2205 170.608 80.2205 173.55 83.4338L204.466 117.21H195.322Z" fill="white"/>
<path d="M195.322 117.21L195.198 117.324C195.23 117.359 195.275 117.379 195.322 117.379V117.21ZM168.574 87.9882L168.698 87.8743L168.698 87.8743L168.574 87.9882ZM167.579 87.9882L167.703 88.102L167.703 88.102L167.579 87.9882ZM140.831 117.21V117.379C140.878 117.379 140.923 117.359 140.955 117.324L140.831 117.21ZM131.687 117.21L131.562 117.096C131.517 117.146 131.505 117.217 131.532 117.278C131.559 117.339 131.62 117.379 131.687 117.379V117.21ZM162.603 83.4338L162.728 83.5477L162.728 83.5477L162.603 83.4338ZM173.55 83.4338L173.425 83.5477L173.425 83.5477L173.55 83.4338ZM204.466 117.21V117.379C204.533 117.379 204.594 117.339 204.621 117.278C204.648 117.217 204.636 117.146 204.591 117.096L204.466 117.21ZM195.447 117.096L168.698 87.8743L168.45 88.102L195.198 117.324L195.447 117.096ZM168.698 87.8743C168.364 87.5091 167.789 87.5091 167.455 87.8743L167.703 88.102C167.904 87.8829 168.249 87.8829 168.45 88.102L168.698 87.8743ZM167.455 87.8743L140.707 117.096L140.955 117.324L167.703 88.102L167.455 87.8743ZM131.687 117.379H140.831V117.041H131.687V117.379ZM162.479 83.3199L131.562 117.096L131.811 117.324L162.728 83.5477L162.479 83.3199ZM173.674 83.3199C170.666 80.0336 165.487 80.0336 162.479 83.3199L162.728 83.5477C165.602 80.4074 170.551 80.4074 173.425 83.5477L173.674 83.3199ZM204.591 117.096L173.674 83.3199L173.425 83.5477L204.342 117.324L204.591 117.096ZM195.322 117.379H204.466V117.041H195.322V117.379Z" fill="black" mask="url(#path-2-inside-1_63_212)"/>
<path fill-rule="evenodd" clip-rule="evenodd" d="M0.31369 50.3764C0.31369 22.9773 7.78808 0.765991 17.0082 0.765991L17.0082 6.67698C16.8272 6.73229 16.1817 7.01555 15.1286 8.33924C13.7194 10.1104 12.191 13.0372 10.7973 17.1789C8.03009 25.402 6.21579 37.1394 6.21579 50.3764C6.21579 63.6133 8.03009 75.3507 10.7973 83.5738C11.7351 86.3607 12.7339 88.5975 13.7163 90.3022L9.31722 94.4201C3.96753 86.1539 0.31369 69.5331 0.31369 50.3764ZM16.968 6.66643C16.9598 6.66563 16.9557 6.6648 16.9557 6.66458C16.9557 6.66437 16.9598 6.66476 16.968 6.66643Z" fill="white"/>
<path fill-rule="evenodd" clip-rule="evenodd" d="M314.811 0.765991H314.811V6.67546L314.811 6.67545C314.985 6.72544 315.634 6.99636 316.701 8.32978C318.107 10.0866 319.633 12.9913 321.026 17.1051C323.79 25.2731 325.604 36.9355 325.604 50.0907C325.604 63.2459 323.79 74.9083 321.026 83.0763C319.907 86.3801 318.703 88.9041 317.544 90.6799L322.088 94.4967C327.662 86.5081 331.506 69.6256 331.506 50.0907C331.506 22.8494 324.032 0.765991 314.811 0.765991ZM314.846 6.66676C314.855 6.66603 314.859 6.66524 314.859 6.66502C314.859 6.66481 314.855 6.66517 314.846 6.66676Z" fill="white"/>
<path d="M10.504 91.1664C15.9712 101.175 49.031 119.753 137.533 114.002" stroke="white" stroke-width="5.9021" stroke-linecap="round"/>
<path d="M320.901 91.1664C315.617 101.175 283.664 119.753 198.124 114.002" stroke="white" stroke-width="5.9021" stroke-linecap="round"/>
<path d="M240.676 71.5587L240.676 71.5587L240.685 71.5622C243.391 72.6124 246.329 73.1331 249.492 73.1331C252.579 73.1331 255.478 72.6115 258.182 71.5622C260.898 70.5085 263.199 68.9425 265.074 66.8635L265.552 66.3346L265.048 65.8309L262.3 63.083L261.764 62.5465L261.233 63.0891C259.625 64.7351 257.862 65.9182 255.946 66.6551C254.012 67.3991 251.921 67.7744 249.667 67.7744C247.299 67.7744 245.114 67.3804 243.104 66.5998C241.089 65.7781 239.343 64.6433 237.858 63.1966C236.369 61.7061 235.196 59.994 234.337 58.056C233.523 56.092 233.112 53.9329 233.112 51.5695C233.112 49.204 233.524 47.0648 234.337 45.1414C235.196 43.1633 236.369 41.4531 237.855 40.0042L237.855 40.0042L237.862 39.9975C239.345 38.5138 241.089 37.3816 243.099 36.5998L243.099 36.5999L243.11 36.5954C245.118 35.7773 247.301 35.3646 249.667 35.3646C251.921 35.3646 254.012 35.7399 255.946 36.4839L255.946 36.484L255.958 36.4883C257.868 37.1863 259.627 38.3476 261.233 39.9914L261.764 40.534L262.3 39.9975L265.048 37.2496L265.552 36.7459L265.074 36.217C263.199 34.1371 260.895 32.5898 258.178 31.575C255.476 30.5273 252.598 30.0059 249.55 30.0059C246.386 30.0059 243.446 30.5467 240.739 31.637C238.04 32.6848 235.676 34.1789 233.655 36.1198L233.655 36.1198L233.649 36.1251C231.667 38.0664 230.112 40.3505 228.983 42.9707L228.983 42.9707L228.98 42.9797C227.886 45.6126 227.344 48.4789 227.344 51.5695C227.344 54.6601 227.886 57.5263 228.98 60.1593L228.98 60.1593L228.983 60.1683C230.112 62.7885 231.667 65.0726 233.649 67.0139C235.633 68.9572 237.978 70.4715 240.676 71.5587Z" fill="white" stroke="white" stroke-width="1.5"/>
<path d="M197.214 67.5406V53.8396H217.629H218.379V53.0896V49.4063V48.6563H217.629H197.214V35.5985H220.201H220.951V34.8485V31.1067V30.3567H220.201H192.138H191.388V31.1067V72.0324V72.7824H192.138H221.078H221.828V72.0324V68.2906V67.5406H221.078H197.214Z" fill="white" stroke="white" stroke-width="1.5"/>
<path d="M165.906 72.0324V7.3227H151.352V0.811035H184.837V7.3227H170.283V72.0324H165.906Z" fill="white"/>
<path d="M116.623 72.0324V72.7824H117.373H121.7H122.45V72.0324V59.8616H132.691C136.239 59.8616 139.332 59.2837 141.946 58.0992C144.556 56.9166 146.584 55.2291 147.996 53.0285C149.45 50.7851 150.162 48.1446 150.162 45.1384C150.162 42.0617 149.453 39.3993 147.996 37.1899C146.584 34.9507 144.555 33.2614 141.941 32.117C139.328 30.9339 136.237 30.3567 132.691 30.3567H117.373H116.623V31.1067V72.0324ZM132.574 54.5613H122.45V35.5985H132.574C136.572 35.5985 139.467 36.4758 141.384 38.1088L141.384 38.1088L141.389 38.1132C143.332 39.7385 144.336 42.0441 144.336 45.1384C144.336 48.1898 143.335 50.4771 141.39 52.1042C139.473 53.702 136.575 54.5613 132.574 54.5613Z" fill="white" stroke="white" stroke-width="1.5"/>
<path d="M67.6507 71.7206L67.1653 72.7824H68.3328H72.8346H73.3207L73.5192 72.3387L78.2131 61.8494H100.08L104.774 72.3387L104.972 72.7824H105.458H110.019H111.186L110.701 71.7206L91.9918 30.7949L91.7914 30.3567H91.3096H87.0417H86.5599L86.3596 30.7949L67.6507 71.7206ZM89.1464 37.4167L97.8388 56.8415H80.4541L89.1464 37.4167Z" fill="white" stroke="white" stroke-width="1.5"/>
<path d="M56.6703 30.3567H55.9203V31.1067V48.5979H31.8126V31.1067V30.3567H31.0626H26.7361H25.9861V31.1067V72.0324V72.7824H26.7361H31.0626H31.8126V72.0324V53.8981H55.9203V72.0324V72.7824H56.6703H60.9383H61.6883V72.0324V31.1067V30.3567H60.9383H56.6703Z" fill="white" stroke="white" stroke-width="1.5"/>
<path d="M302.934 30.25H302.184V31V48.4912H278.076V31V30.25H277.326H273H272.25V31V71.9257V72.6757H273H277.326H278.076V71.9257V53.7914H302.184V71.9257V72.6757H302.934H307.202H307.952V71.9257V31V30.25H307.202H302.934Z" fill="white" stroke="white" stroke-width="1.5"/>
<path d="M16 4H61" stroke="white" stroke-width="6.37803" stroke-linecap="round"/>
<path d="M273 4L316 4" stroke="white" stroke-width="6.37803" stroke-linecap="round"/>
<line x1="138" y1="4" x2="198" y2="4" stroke="white" stroke-width="8"/>
<path d="M168 7L168 72.5" stroke="white" stroke-width="8"/>
</svg>
